<svg xmlns="http://www.w3.org/2000/svg" xmlns:xlink="http://www.w3.org/1999/xlink" width="150" height="50" viewBox="0 0 150 50"><defs><clipPath id="b"><rect width="150" height="50"/></clipPath></defs><g id="a" clip-path="url(#b)"><rect width="150" height="50" fill="#fff"/><g transform="translate(-352 -126)"><g transform="translate(353.118 130.703)"><path d="M.6,2.509C.888,1.433.84.6,2.224.492s1.69,1.417,1.812,2.017a69.917,69.917,0,0,1-.659,7.957c-.453,4.319-.519,7.8-1.153,9.318S.9,21.013.6,20.249a6.405,6.405,0,0,1-.3-1.858A37.792,37.792,0,0,1-.01,12.225,78.544,78.544,0,0,1,.6,2.509Z" transform="translate(14.179 8.238)" fill="#476268"/><path d="M17.534,0c6.675,0,12.929,1.843,16.112,4.757A5.856,5.856,0,0,1,35.44,9.321c0,2.42-2.137,5.916-7.345,7.738-5.571,1.95-14.329,2.08-15.085,2.124-6.441.372-12.295.884-12.9-.015s1.3-1.37,3.1-1.509c.689-.049,12.426-1.035,12.426-1.035a73.067,73.067,0,0,0,11.64-2.391c1.973-.676,4.537-2.529,5.022-4.641.327-1.4-.886-3.083-3.039-3.879A30.124,30.124,0,0,0,15.455,3.548C8.244,3.874,2.314,7.447.552,6.6S2.933,3.016,7.613,1.44A36.332,36.332,0,0,1,17.534,0Z" transform="matrix(0.999, -0.035, 0.035, 0.999, 0, 1.237)" fill="#476268"/><g transform="translate(33.376 6.821)"><path d="M1.256.827C1.523-.286,3.508-.969,4.205.26c.371.654-.021,2.663-.266,5.3-.19,2.05-.516,4.446-.661,6.777a13.379,13.379,0,0,1,2.15-3.4,3.035,3.035,0,0,1,2.512-.594c.533.2.044,2.707-.229,4.987a8.811,8.811,0,0,0,0,2.81c.1.131,1.033-.951,1.739-2.427a19.365,19.365,0,0,0,.99-4.453c.152-1.176,2.54-.758,2.668-.182a8.967,8.967,0,0,1-.153,2.853c0,.611-.257,4.544.283,4.441s1.5-2.342,2.065-4.441a58.78,58.78,0,0,0,.453-6.366c.376-3.026.154-3.245.339-4.235A1.827,1.827,0,0,1,17.6.215a1.5,1.5,0,0,1,1.528.976c.094.422-.28,2.55-.547,5.212-.125,1.246-.142,2.807-.225,4.145-.063,1.009-.122,7.06.345,7.041s.788-1.03,1.656-3.205a25.174,25.174,0,0,0,.831-2.4,18.883,18.883,0,0,0,.524-2.735c.085-.209.332-.651,1.3-.749.386-.049,1.186.167,1.256.749a50.239,50.239,0,0,0-.209,6.315c.011.188.043.859.375.779.222-.053.262-.179.887-1.417a12.64,12.64,0,0,0,1.149-3.006c.6-1.936-.094-4.974.4-5.95a3.442,3.442,0,0,1,1.447-1.1.98.98,0,0,1,1.3.683c.17.5-.342,2.461-.164,2.945s.1-.441.875-1.007a2.576,2.576,0,0,1,3.031.363c.96.792,1.5,2.817,1.476,4.353a7.9,7.9,0,0,1-1.9,4.835,2.293,2.293,0,0,1-2.2.756c-.894-.233-1.763-1.25-1.747-.973.027.468.108,4.964-.26,5.382a1.655,1.655,0,0,1-1.37.547c-.4.03-1-.167-1.081-.547-.155-.722.2-6,.2-6a16.89,16.89,0,0,0-1,1.373c-.356.4-.512.977-2.077.762s-1.91-2-1.91-2a10.478,10.478,0,0,1-2.105,3.473,1.869,1.869,0,0,1-3.151-.556A5.722,5.722,0,0,1,15.8,17.7c-.129-.894-.056-1.843-.231-1.778-.1.038-.136.141-.46.689a6.083,6.083,0,0,1-1.47,1.743,2.143,2.143,0,0,1-2.489-.452,7.049,7.049,0,0,1-.906-2.607A6.488,6.488,0,0,1,7.941,17.9a2.517,2.517,0,0,1-2.087,0c-.61-.449-.924-1.313-1.022-2.83a17.352,17.352,0,0,1,.3-3.145c0-.61-.129.066-.335.519-.238.527-.735,1.845-1.128,2.968a23.479,23.479,0,0,0-.759,3.307c-.333,1.36-2.228,1.221-2.679.53a9.014,9.014,0,0,1,0-2.448c.1-1.771.358-4.282.455-5.851C.983,6.178,1.118,1.4,1.256.827Z" transform="translate(-0.15 0.394)" fill="#476268"/><path d="M1.342,0C2.02,0,2.69,1.517,2.69,3.413a8,8,0,0,1-.154,1.923c-.182.81-.758,1.532-1.194,1.532C.665,6.868,0,5.279,0,3.382A9.569,9.569,0,0,1,.254,1.313C.435.5.9,0,1.342,0Z" transform="translate(29.668 9.356) rotate(8)" fill="#fff"/><ellipse cx="2.944" cy="1.962" rx="2.944" ry="1.962" transform="translate(19.798 4.09) rotate(-8)" fill="#476268"/><ellipse cx="2.944" cy="1.962" rx="2.944" ry="1.962" transform="translate(8.757 4.09) rotate(-8)" fill="#476268"/></g><g transform="translate(75.892 0.856)"><g transform="translate(30.166 11.185)"><path d="M53.543,17.346s-.094-4.974.4-5.95a3.442,3.442,0,0,1,1.447-1.1.98.98,0,0,1,1.3.683c.17.5-.342,2.461-.164,2.945s.1-.441.875-1.007a2.576,2.576,0,0,1,3.031.363c.96.792,1.5,2.817,1.476,4.353A7.9,7.9,0,0,1,60,22.469a2.293,2.293,0,0,1-2.2.756c-.894-.233-1.763-1.25-1.747-.973.027.468.108,4.964-.26,5.382a1.655,1.655,0,0,1-1.37.547c-.4.03-1-.167-1.081-.547C53.189,26.912,53.543,17.346,53.543,17.346Z" transform="translate(-53.305 -10.248)" fill="#476268"/><path d="M1.342,0C2.02,0,2.69,1.517,2.69,3.413a8,8,0,0,1-.154,1.923c-.182.81-.758,1.532-1.194,1.532C.665,6.868,0,5.279,0,3.382A9.569,9.569,0,0,1,.254,1.313C.435.5.9,0,1.342,0Z" transform="translate(3.591 4.135) rotate(8)" fill="#fff"/></g><g transform="translate(39.487 11.185)"><path d="M53.543,17.346s-.094-4.974.4-5.95a3.442,3.442,0,0,1,1.447-1.1.98.98,0,0,1,1.3.683c.17.5-.342,2.461-.164,2.945s.1-.441.875-1.007a2.576,2.576,0,0,1,3.031.363c.96.792,1.5,2.817,1.476,4.353A7.9,7.9,0,0,1,60,22.469a2.293,2.293,0,0,1-2.2.756c-.894-.233-1.763-1.25-1.747-.973.027.468.108,4.964-.26,5.382a1.655,1.655,0,0,1-1.37.547c-.4.03-1-.167-1.081-.547C53.189,26.912,53.543,17.346,53.543,17.346Z" transform="translate(-53.305 -10.248)" fill="#476268"/><path d="M1.342,0C2.02,0,2.69,1.517,2.69,3.413a8,8,0,0,1-.154,1.923c-.182.81-.758,1.532-1.194,1.532C.665,6.868,0,5.279,0,3.382A9.569,9.569,0,0,1,.254,1.313C.435.5.9,0,1.342,0Z" transform="translate(3.591 4.135) rotate(8)" fill="#fff"/></g><path d="M5.052,5.686C6.559,3.864,9.427.892,12.836.49c2.8-.33,6.2,1.384,7.089,2.634a13.547,13.547,0,0,1,3.113,5.692,23.712,23.712,0,0,1,1.173,6.667,25.433,25.433,0,0,1-.335,7.139,10.9,10.9,0,0,1-1.516,3.639l-.416.01s.727-11.4-2.02-17.454-6.088-5.173-6.088-5.173-4.03-.261-7.479,5.962S2.806,26.662,2.806,26.662a1.705,1.705,0,0,1-.825-.466A9.187,9.187,0,0,1,.749,24.549a12.234,12.234,0,0,1-.764-3.328,30.143,30.143,0,0,1,1.322-7.595A23.653,23.653,0,0,1,5.052,5.686Z" transform="translate(3.54 -0.449)" fill="#476268"/><path d="M.458,2.381C1.533,2.2,8.2,1.4,14.935.886S25.527.343,26.819.57A3.478,3.478,0,0,1,29,1.482a1.014,1.014,0,0,1-.374,1.724c-.782.251-6.583.226-13.695.387S1.773,3.941.772,3.85-.617,2.561.458,2.381Z" transform="translate(0.185 15.257)" fill="#476268"/><g transform="translate(48.564 6.042)"><path d="M4.987-8.474A2.231,2.231,0,0,1,7.325-6.966h.264a.954.954,0,0,1,.6-.322C8.576-7.336,9.9-7.315,9.975-6.11s-.308,2.455-.334,3.972S9.513-.677,9.864.156C9.983.441,10.988-.86,11.6-2.825A22.188,22.188,0,0,0,12.3-7.7c.073-.6.267-4.461.41-7-.206-1.486,2.369-2.138,2.773-.829.635,2.061-.748,8.477-.67,11.528.024.929,1.057-2.037,1.869-2.963s3.249-1.38,3.231,0c-.025,1.856-1.383,6.6-.566,7.122.318.2,2.006-4.247,2.558-5.057s1.213-.678,1.339-.215c.443,1.629-2.176,6.492-3.9,7.414S16.762,1.8,16.54.76s.354-5.323-.136-4.295a27.171,27.171,0,0,0-2.25,6.687c-.015.67-2.3,1.067-2.442.564A23.4,23.4,0,0,1,11.846.76c-.038-.152-.108-.118-.166,0A2.669,2.669,0,0,1,9.372,2.594c-1.277.076-1.75-1.328-1.89-1.45s-.206-.07-.269,0-.1.539-.184.859A3.19,3.19,0,0,1,6.3,3.152a3.291,3.291,0,0,1-2.255.929c-2.3,0-3.238-2.833-3.238-6.22S2.684-8.474,4.987-8.474Z" transform="translate(-0.806 16.236)" fill="#476268"/><ellipse cx="1.717" cy="4.661" rx="1.717" ry="4.661" transform="translate(3.284 9.441) rotate(8)" fill="#fff"/></g></g></g><text transform="translate(368 169)" fill="#45968a" font-size="8" font-family="LucidaGrande-Bold, Lucida Grande" font-weight="700"><tspan x="0" y="0">U</tspan><tspan y="0" xml:space="preserve" font-family="DamascusBold, Damascus" font-weight="400">   </tspan><tspan y="0">X</tspan><tspan y="0" xml:space="preserve" font-family="DamascusBold, Damascus" font-weight="400">         </tspan><tspan y="0">D</tspan><tspan y="0" xml:space="preserve" font-family="DamascusBold, Damascus" font-weight="400">   </tspan><tspan y="0">E</tspan><tspan y="0" xml:space="preserve" font-family="DamascusBold, Damascus" font-weight="400">   </tspan><tspan y="0">S</tspan><tspan y="0" xml:space="preserve" font-family="DamascusBold, Damascus" font-weight="400">   </tspan><tspan y="0">I</tspan><tspan y="0" xml:space="preserve" font-family="DamascusBold, Damascus" font-weight="400">   </tspan><tspan y="0">G</tspan><tspan y="0" xml:space="preserve" font-family="DamascusBold, Damascus" font-weight="400">   </tspan><tspan y="0">N</tspan><tspan y="0" xml:space="preserve" font-family="DamascusBold, Damascus" font-weight="400">   </tspan><tspan y="0">E</tspan><tspan y="0" xml:space="preserve" font-family="DamascusBold, Damascus" font-weight="400">   </tspan><tspan y="0">R</tspan></text></g></g></svg>